<svg xmlns="http://www.w3.org/2000/svg" viewBox="0 0 96 96"><defs><style>.cls-1{fill:none;stroke:#fff;stroke-miterlimit:10;stroke-width:4px;}</style></defs><g id="Layer_2" data-name="Layer 2"><g id="MAIN"><path class="cls-1" d="M48,47.9,61.45,34.47a19,19,0,0,1,26.89,0l.1.09a19,19,0,0,1,0,26.87l-.08.08a19,19,0,0,1-26.92,0l-26.91-27a19,19,0,0,1,0-26.85l0,0a19,19,0,0,1,26.89,0h0a19,19,0,0,1,0,26.87l-27,27a19,19,0,0,1-26.9,0l-.05,0a19,19,0,0,1,.05-26.91l.07-.08a19,19,0,0,1,26.88.08l27,27.09a19,19,0,0,1,0,26.84l0,0a19,19,0,0,1-26.9,0"/></g></g></svg>