<svg xmlns="http://www.w3.org/2000/svg" viewBox="0 0 96.92 96.91"><defs><style>.cls-1{fill:#fff;}</style></defs><g id="Layer_2" data-name="Layer 2"><g id="MAIN"><path class="cls-1" d="M90.75,33.56A21.09,21.09,0,0,0,68,28.89a21.07,21.07,0,1,0-39.14,0A21.07,21.07,0,1,0,36,63.36L48.46,50.87h0L61,63.36a17.66,17.66,0,0,1-25,25l-2.41,2.41A21.07,21.07,0,0,0,68,68,21.08,21.08,0,0,0,90.75,33.56ZM36,8.58a17.66,17.66,0,0,1,25,25L48.46,46.05,36,33.56A17.7,17.7,0,0,1,36,8.58ZM33.56,61a17.65,17.65,0,1,1,0-25L46.05,48.46Zm54.78,0a17.68,17.68,0,0,1-25,0L50.87,48.46,63.36,36a17.66,17.66,0,0,1,25,25Z"/></g></g></svg>